<svg xmlns="http://www.w3.org/2000/svg" xmlns:xlink="http://www.w3.org/1999/xlink" width="500" zoomAndPan="magnify" viewBox="0 0 375 374.999991" height="500" preserveAspectRatio="xMidYMid meet" version="1.0"><defs><clipPath id="id1"><path d="M 123.378906 77.65625 L 251.628906 77.65625 L 251.628906 297.40625 L 123.378906 297.40625 Z M 123.378906 77.65625 " clip-rule="nonzero"/></clipPath></defs><rect x="-37.5" width="450" fill="#ffffff" y="-37.499999" height="449.999989" fill-opacity="1"/><rect x="-37.5" width="450" fill="#3dcfd3" y="-37.499999" height="449.999989" fill-opacity="1"/><rect x="-37.5" width="450" fill="#ffffff" y="-37.499999" height="449.999989" fill-opacity="1"/><rect x="-37.5" width="450" fill="#3dcfd3" y="-37.499999" height="449.999989" fill-opacity="1"/><g clip-path="url(#id1)"><path fill="#211c1d" d="M 233.292969 272.5625 L 141.734375 272.5625 C 138.28125 272.5625 135.484375 269.761719 135.484375 266.308594 L 135.484375 104.4375 C 135.484375 100.984375 138.28125 98.183594 141.734375 98.183594 L 233.292969 98.183594 C 236.746094 98.183594 239.542969 100.984375 239.542969 104.4375 L 239.542969 266.308594 C 239.542969 269.761719 236.746094 272.5625 233.292969 272.5625 Z M 187.515625 294.042969 C 182.835938 294.042969 179.042969 290.253906 179.042969 285.574219 C 179.042969 280.894531 182.835938 277.101562 187.515625 277.101562 C 192.191406 277.101562 195.984375 280.894531 195.984375 285.574219 C 195.984375 290.253906 192.191406 294.042969 187.515625 294.042969 Z M 173.246094 86.789062 L 201.78125 86.789062 C 202.949219 86.789062 203.898438 87.734375 203.898438 88.902344 C 203.898438 90.074219 202.949219 91.023438 201.78125 91.023438 L 173.246094 91.023438 C 172.078125 91.023438 171.128906 90.074219 171.128906 88.902344 C 171.128906 87.734375 172.078125 86.789062 173.246094 86.789062 Z M 215.746094 84.972656 C 217.917969 84.972656 219.679688 86.730469 219.679688 88.902344 C 219.679688 91.078125 217.917969 92.835938 215.746094 92.835938 C 213.578125 92.835938 211.8125 91.078125 211.8125 88.902344 C 211.8125 86.730469 213.578125 84.972656 215.746094 84.972656 Z M 235.820312 77.707031 L 139.207031 77.707031 C 130.484375 77.707031 123.382812 84.804688 123.382812 93.53125 L 123.382812 281.550781 C 123.382812 290.277344 130.484375 297.375 139.207031 297.375 L 235.820312 297.375 C 244.546875 297.375 251.644531 290.277344 251.644531 281.550781 L 251.644531 93.53125 C 251.644531 84.804688 244.546875 77.707031 235.820312 77.707031 " fill-opacity="1" fill-rule="nonzero"/></g></svg>