<svg xmlns="http://www.w3.org/2000/svg" xmlns:xlink="http://www.w3.org/1999/xlink" width="500" zoomAndPan="magnify" viewBox="0 0 375 374.999991" height="500" preserveAspectRatio="xMidYMid meet" version="1.0"><defs><clipPath id="id1"><path d="M 76.46875 76.46875 L 298.46875 76.46875 L 298.46875 298.46875 L 76.46875 298.46875 Z M 76.46875 76.46875 " clip-rule="nonzero"/></clipPath></defs><rect x="-37.5" width="450" fill="#ffffff" y="-37.499999" height="449.999989" fill-opacity="1"/><rect x="-37.5" width="450" fill="#3dcfd3" y="-37.499999" height="449.999989" fill-opacity="1"/><rect x="-37.5" width="450" fill="#ffffff" y="-37.499999" height="449.999989" fill-opacity="1"/><rect x="-37.5" width="450" fill="#3dcfd3" y="-37.499999" height="449.999989" fill-opacity="1"/><g clip-path="url(#id1)"><path fill="#000000" d="M 139.070312 287.390625 C 143.097656 281.316406 146.9375 274.730469 150.601562 267.589844 C 145.46875 274.226562 140.605469 280.285156 135.953125 285.816406 C 136.984375 286.355469 138.023438 286.882812 139.070312 287.390625 Z M 221.933594 169.863281 C 223.839844 208.394531 216.097656 241.625 175.410156 249.152344 C 175.59375 248.03125 175.667969 246.890625 175.59375 245.730469 C 186.019531 241.75 203.433594 225.59375 204.839844 211.429688 C 201.355469 228.089844 181.339844 239.210938 174.789062 241.863281 C 174.34375 240.644531 173.714844 239.410156 172.855469 238.167969 C 204.519531 218.515625 200.097656 186.09375 199.871094 182.101562 C 199.449219 189.816406 196.539062 204.234375 189.050781 214.359375 C 184.082031 221.074219 173.320312 228.039062 166.632812 231.96875 C 158.554688 225.9375 150.589844 224.296875 141.269531 229.035156 L 141.257812 228.996094 C 141.257812 228.996094 131.992188 139.691406 233.894531 125.785156 C 233.894531 125.785156 220.390625 138.691406 221.933594 169.863281 Z M 187.46875 76.46875 C 126.164062 76.46875 76.46875 126.164062 76.46875 187.46875 C 76.46875 219.359375 89.917969 248.105469 111.449219 268.351562 C 114.988281 262.972656 118.535156 257.164062 122.109375 250.898438 C 122.109375 250.898438 139.164062 225.972656 159.210938 238.539062 C 179.257812 251.113281 169.695312 263.636719 164.4375 272.023438 C 159.878906 279.292969 155.25 286 150.542969 292.179688 C 162.09375 296.25 174.523438 298.46875 187.46875 298.46875 C 248.769531 298.46875 298.464844 248.769531 298.464844 187.46875 C 298.464844 126.164062 248.769531 76.46875 187.46875 76.46875 " fill-opacity="1" fill-rule="evenodd"/></g></svg>