<svg xmlns="http://www.w3.org/2000/svg" xmlns:xlink="http://www.w3.org/1999/xlink" width="500" zoomAndPan="magnify" viewBox="0 0 375 374.999991" height="500" preserveAspectRatio="xMidYMid meet" version="1.0"><defs><g/></defs><rect x="-37.5" width="450" fill="#ffffff" y="-37.499999" height="449.999989" fill-opacity="1"/><rect x="-37.5" width="450" fill="#3dcfd3" y="-37.499999" height="449.999989" fill-opacity="1"/><rect x="-37.5" width="450" fill="#ffffff" y="-37.499999" height="449.999989" fill-opacity="1"/><rect x="-37.5" width="450" fill="#3dcfd3" y="-37.499999" height="449.999989" fill-opacity="1"/><g fill="#000000" fill-opacity="1"><g transform="translate(84.596433, 236.266693)"><g><path d="M 70.84375 -16.09375 L 6.921875 -44.171875 L 6.921875 -50.6875 L 70.84375 -82.546875 L 70.84375 -72.625 L 18.828125 -47.953125 L 70.84375 -26.140625 Z M 70.84375 -16.09375 "/></g></g></g><g fill="#000000" fill-opacity="1"><g transform="translate(162.479956, 236.266693)"><g><path d="M 48.625 -97.234375 L 12.375 0 L 1.328125 0 L 37.578125 -97.234375 Z M 48.625 -97.234375 "/></g></g></g><g fill="#000000" fill-opacity="1"><g transform="translate(212.495654, 236.266693)"><g><path d="M 6.921875 -26.140625 L 59 -47.828125 L 6.921875 -72.625 L 6.921875 -82.546875 L 70.84375 -50.6875 L 70.84375 -44.171875 L 6.921875 -16.09375 Z M 6.921875 -26.140625 "/></g></g></g></svg>