<svg xmlns="http://www.w3.org/2000/svg" xmlns:xlink="http://www.w3.org/1999/xlink" width="500" zoomAndPan="magnify" viewBox="0 0 375 374.999991" height="500" preserveAspectRatio="xMidYMid meet" version="1.0"><defs><clipPath id="id1"><path d="M 95.332031 114.917969 L 279.832031 114.917969 L 279.832031 260.417969 L 95.332031 260.417969 Z M 95.332031 114.917969 " clip-rule="nonzero"/></clipPath></defs><rect x="-37.5" width="450" fill="#ffffff" y="-37.499999" height="449.999989" fill-opacity="1"/><rect x="-37.5" width="450" fill="#3dcfd3" y="-37.499999" height="449.999989" fill-opacity="1"/><rect x="-37.5" width="450" fill="#ffffff" y="-37.499999" height="449.999989" fill-opacity="1"/><rect x="-37.5" width="450" fill="#3dcfd3" y="-37.499999" height="449.999989" fill-opacity="1"/><g clip-path="url(#id1)"><path fill="#4d4d4d" d="M 269.859375 223.605469 L 105.304688 223.605469 L 120.957031 136.601562 L 269.859375 124.945312 Z M 274.84375 114.960938 L 100.316406 114.960938 C 97.5625 114.960938 95.332031 117.195312 95.332031 119.953125 L 95.332031 228.601562 C 95.332031 231.359375 97.5625 233.59375 100.316406 233.59375 L 182.59375 233.59375 L 182.59375 250.375 L 134.515625 250.375 C 131.761719 250.375 129.527344 252.609375 129.527344 255.367188 C 129.527344 258.125 131.761719 260.363281 134.515625 260.363281 L 240.644531 260.363281 C 243.398438 260.363281 245.632812 258.125 245.632812 255.367188 C 245.632812 252.609375 243.398438 250.375 240.644531 250.375 L 192.566406 250.375 L 192.566406 233.59375 L 274.84375 233.59375 C 277.597656 233.59375 279.828125 231.359375 279.828125 228.601562 L 279.828125 119.953125 C 279.828125 117.195312 277.597656 114.960938 274.84375 114.960938 " fill-opacity="1" fill-rule="nonzero"/><path fill="#000000" d="M 269.859375 223.605469 L 105.304688 223.605469 L 105.304688 124.945312 L 269.859375 124.945312 Z M 274.84375 114.960938 L 100.316406 114.960938 C 97.5625 114.960938 95.332031 117.195312 95.332031 119.953125 L 95.332031 228.601562 C 95.332031 231.359375 97.5625 233.59375 100.316406 233.59375 L 182.59375 233.59375 L 182.59375 250.375 L 134.515625 250.375 C 131.761719 250.375 129.527344 252.609375 129.527344 255.367188 C 129.527344 258.125 131.761719 260.363281 134.515625 260.363281 L 240.644531 260.363281 C 243.398438 260.363281 245.632812 258.125 245.632812 255.367188 C 245.632812 252.609375 243.398438 250.375 240.644531 250.375 L 192.566406 250.375 L 192.566406 233.59375 L 274.84375 233.59375 C 277.597656 233.59375 279.828125 231.359375 279.828125 228.601562 L 279.828125 119.953125 C 279.828125 117.195312 277.597656 114.960938 274.84375 114.960938 " fill-opacity="1" fill-rule="nonzero"/></g></svg>